<svg id="visual" viewBox="0 0 960 540" width="960" height="540" xmlns="http://www.w3.org/2000/svg" xmlns:xlink="http://www.w3.org/1999/xlink" version="1.1"><rect x="0" y="0" width="960" height="540" fill="#fff"></rect><defs><linearGradient id="grad1_0" x1="43.8%" y1="0%" x2="100%" y2="100%"><stop offset="14.444444444444446%" stop-color="#f4d74b" stop-opacity="1"></stop><stop offset="85.55555555555554%" stop-color="#f4d74b" stop-opacity="1"></stop></linearGradient></defs><defs><linearGradient id="grad1_1" x1="43.8%" y1="0%" x2="100%" y2="100%"><stop offset="14.444444444444446%" stop-color="#f4d74b" stop-opacity="1"></stop><stop offset="85.55555555555554%" stop-color="#ffeaa8" stop-opacity="1"></stop></linearGradient></defs><defs><linearGradient id="grad1_2" x1="43.8%" y1="0%" x2="100%" y2="100%"><stop offset="14.444444444444446%" stop-color="#ffffff" stop-opacity="1"></stop><stop offset="85.55555555555554%" stop-color="#ffeaa8" stop-opacity="1"></stop></linearGradient></defs><defs><linearGradient id="grad2_0" x1="0%" y1="0%" x2="56.3%" y2="100%"><stop offset="14.444444444444446%" stop-color="#f4d74b" stop-opacity="1"></stop><stop offset="85.55555555555554%" stop-color="#f4d74b" stop-opacity="1"></stop></linearGradient></defs><defs><linearGradient id="grad2_1" x1="0%" y1="0%" x2="56.3%" y2="100%"><stop offset="14.444444444444446%" stop-color="#ffeaa8" stop-opacity="1"></stop><stop offset="85.55555555555554%" stop-color="#f4d74b" stop-opacity="1"></stop></linearGradient></defs><defs><linearGradient id="grad2_2" x1="0%" y1="0%" x2="56.3%" y2="100%"><stop offset="14.444444444444446%" stop-color="#ffeaa8" stop-opacity="1"></stop><stop offset="85.55555555555554%" stop-color="#ffffff" stop-opacity="1"></stop></linearGradient></defs><g transform="translate(960, 0)"><path d="M0 243C-35.3 243.1 -70.6 243.2 -93 224.5C-115.4 205.8 -125 168.4 -144.2 144.2C-163.5 120.1 -192.6 109.1 -210.6 87.3C-228.7 65.4 -235.9 32.7 -243 0L0 0Z" fill="#fff5d4"></path><path d="M0 162C-23.5 162.1 -47 162.1 -62 149.7C-76.9 137.2 -83.3 112.3 -96.2 96.2C-109 80 -128.4 72.7 -140.4 58.2C-152.5 43.6 -157.2 21.8 -162 0L0 0Z" fill="#fbe17c"></path><path d="M0 81C-11.8 81 -23.5 81.1 -31 74.8C-38.5 68.6 -41.7 56.1 -48.1 48.1C-54.5 40 -64.2 36.4 -70.2 29.1C-76.2 21.8 -78.6 10.9 -81 0L0 0Z" fill="#f4d74b"></path></g><g transform="translate(0, 540)"><path d="M0 -243C27.4 -226.8 54.8 -210.6 82.3 -198.6C109.7 -186.7 137.2 -178.9 162.6 -162.6C188.1 -146.3 211.4 -121.5 224.5 -93C237.6 -64.5 240.3 -32.2 243 0L0 0Z" fill="#fff5d4"></path><path d="M0 -162C18.3 -151.2 36.6 -140.4 54.9 -132.4C73.1 -124.4 91.5 -119.3 108.4 -108.4C125.4 -97.6 141 -81 149.7 -62C158.4 -43 160.2 -21.5 162 0L0 0Z" fill="#fbe17c"></path><path d="M0 -81C9.1 -75.6 18.3 -70.2 27.4 -66.2C36.6 -62.2 45.7 -59.6 54.2 -54.2C62.7 -48.8 70.5 -40.5 74.8 -31C79.2 -21.5 80.1 -10.7 81 0L0 0Z" fill="#f4d74b"></path></g></svg>